<mxfile host="app.diagrams.net" modified="2024-02-03T14:20:51.600Z" agent="Mozilla/5.0 (Windows NT 10.0; Win64; x64) AppleWebKit/537.36 (KHTML, like Gecko) Chrome/121.0.0.0 Safari/537.36" etag="f7rGel1rslnX2zuGkJo4" version="23.1.0" type="github">
  <diagram name="Page-1" id="9uLGEtifl8IW8gjtc7ou">
    <mxGraphModel dx="1764" dy="1020" grid="1" gridSize="10" guides="1" tooltips="1" connect="1" arrows="1" fold="1" page="1" pageScale="1" pageWidth="850" pageHeight="1100" math="0" shadow="0">
      <root>
        <mxCell id="0" />
        <mxCell id="1" parent="0" />
        <mxCell id="6mWwChXlrOiVwd8oG1GH-19" style="edgeStyle=orthogonalEdgeStyle;rounded=0;orthogonalLoop=1;jettySize=auto;html=1;exitX=1;exitY=0.5;exitDx=0;exitDy=0;entryX=0;entryY=0.5;entryDx=0;entryDy=0;" edge="1" parent="1" source="6mWwChXlrOiVwd8oG1GH-1" target="6mWwChXlrOiVwd8oG1GH-3">
          <mxGeometry relative="1" as="geometry" />
        </mxCell>
        <mxCell id="6mWwChXlrOiVwd8oG1GH-1" value="Start" style="ellipse;whiteSpace=wrap;html=1;fillColor=#d5e8d4;strokeColor=#82b366;" vertex="1" parent="1">
          <mxGeometry x="10" y="10" width="120" height="80" as="geometry" />
        </mxCell>
        <mxCell id="6mWwChXlrOiVwd8oG1GH-50" value="" style="edgeStyle=orthogonalEdgeStyle;rounded=0;orthogonalLoop=1;jettySize=auto;html=1;" edge="1" parent="1" source="6mWwChXlrOiVwd8oG1GH-3" target="6mWwChXlrOiVwd8oG1GH-49">
          <mxGeometry relative="1" as="geometry" />
        </mxCell>
        <mxCell id="6mWwChXlrOiVwd8oG1GH-3" value="Shuffle Deck" style="shape=process;whiteSpace=wrap;html=1;backgroundOutline=1;" vertex="1" parent="1">
          <mxGeometry x="170" y="20" width="120" height="60" as="geometry" />
        </mxCell>
        <mxCell id="6mWwChXlrOiVwd8oG1GH-4" value="Shuffle Deck" style="swimlane;whiteSpace=wrap;html=1;" vertex="1" parent="1">
          <mxGeometry x="480" y="10" width="300" height="420" as="geometry" />
        </mxCell>
        <mxCell id="6mWwChXlrOiVwd8oG1GH-13" style="edgeStyle=orthogonalEdgeStyle;rounded=0;orthogonalLoop=1;jettySize=auto;html=1;exitX=1;exitY=0.5;exitDx=0;exitDy=0;entryX=0;entryY=0.5;entryDx=0;entryDy=0;" edge="1" parent="6mWwChXlrOiVwd8oG1GH-4" source="6mWwChXlrOiVwd8oG1GH-5" target="6mWwChXlrOiVwd8oG1GH-6">
          <mxGeometry relative="1" as="geometry" />
        </mxCell>
        <mxCell id="6mWwChXlrOiVwd8oG1GH-5" value="Start" style="ellipse;whiteSpace=wrap;html=1;fillColor=#d5e8d4;strokeColor=#82b366;" vertex="1" parent="6mWwChXlrOiVwd8oG1GH-4">
          <mxGeometry x="10" y="30" width="120" height="80" as="geometry" />
        </mxCell>
        <mxCell id="6mWwChXlrOiVwd8oG1GH-12" style="edgeStyle=orthogonalEdgeStyle;rounded=0;orthogonalLoop=1;jettySize=auto;html=1;exitX=0.5;exitY=1;exitDx=0;exitDy=0;entryX=0.5;entryY=0;entryDx=0;entryDy=0;" edge="1" parent="6mWwChXlrOiVwd8oG1GH-4" source="6mWwChXlrOiVwd8oG1GH-6" target="6mWwChXlrOiVwd8oG1GH-7">
          <mxGeometry relative="1" as="geometry" />
        </mxCell>
        <mxCell id="6mWwChXlrOiVwd8oG1GH-6" value="Shuffle the cards" style="rounded=0;whiteSpace=wrap;html=1;" vertex="1" parent="6mWwChXlrOiVwd8oG1GH-4">
          <mxGeometry x="170" y="40" width="120" height="60" as="geometry" />
        </mxCell>
        <mxCell id="6mWwChXlrOiVwd8oG1GH-11" style="edgeStyle=orthogonalEdgeStyle;rounded=0;orthogonalLoop=1;jettySize=auto;html=1;exitX=0.5;exitY=1;exitDx=0;exitDy=0;entryX=0.5;entryY=0;entryDx=0;entryDy=0;" edge="1" parent="6mWwChXlrOiVwd8oG1GH-4" source="6mWwChXlrOiVwd8oG1GH-7" target="6mWwChXlrOiVwd8oG1GH-9">
          <mxGeometry relative="1" as="geometry" />
        </mxCell>
        <mxCell id="6mWwChXlrOiVwd8oG1GH-7" value="Cut the Deck" style="rounded=0;whiteSpace=wrap;html=1;" vertex="1" parent="6mWwChXlrOiVwd8oG1GH-4">
          <mxGeometry x="170" y="140" width="120" height="60" as="geometry" />
        </mxCell>
        <mxCell id="6mWwChXlrOiVwd8oG1GH-15" style="edgeStyle=orthogonalEdgeStyle;rounded=0;orthogonalLoop=1;jettySize=auto;html=1;exitX=0;exitY=0.5;exitDx=0;exitDy=0;entryX=1;entryY=0.5;entryDx=0;entryDy=0;" edge="1" parent="6mWwChXlrOiVwd8oG1GH-4" source="6mWwChXlrOiVwd8oG1GH-8" target="6mWwChXlrOiVwd8oG1GH-14">
          <mxGeometry relative="1" as="geometry" />
        </mxCell>
        <mxCell id="6mWwChXlrOiVwd8oG1GH-8" value="Flip the top card" style="rounded=0;whiteSpace=wrap;html=1;" vertex="1" parent="6mWwChXlrOiVwd8oG1GH-4">
          <mxGeometry x="170" y="340" width="120" height="60" as="geometry" />
        </mxCell>
        <mxCell id="6mWwChXlrOiVwd8oG1GH-10" style="edgeStyle=orthogonalEdgeStyle;rounded=0;orthogonalLoop=1;jettySize=auto;html=1;exitX=0.5;exitY=1;exitDx=0;exitDy=0;entryX=0.5;entryY=0;entryDx=0;entryDy=0;" edge="1" parent="6mWwChXlrOiVwd8oG1GH-4" source="6mWwChXlrOiVwd8oG1GH-9" target="6mWwChXlrOiVwd8oG1GH-8">
          <mxGeometry relative="1" as="geometry" />
        </mxCell>
        <mxCell id="6mWwChXlrOiVwd8oG1GH-9" value="Place cards face down" style="rounded=0;whiteSpace=wrap;html=1;" vertex="1" parent="6mWwChXlrOiVwd8oG1GH-4">
          <mxGeometry x="170" y="240" width="120" height="60" as="geometry" />
        </mxCell>
        <mxCell id="6mWwChXlrOiVwd8oG1GH-30" style="edgeStyle=orthogonalEdgeStyle;rounded=0;orthogonalLoop=1;jettySize=auto;html=1;exitX=0.5;exitY=0;exitDx=0;exitDy=0;entryX=0.5;entryY=1;entryDx=0;entryDy=0;" edge="1" parent="6mWwChXlrOiVwd8oG1GH-4" source="6mWwChXlrOiVwd8oG1GH-14" target="6mWwChXlrOiVwd8oG1GH-29">
          <mxGeometry relative="1" as="geometry" />
        </mxCell>
        <mxCell id="6mWwChXlrOiVwd8oG1GH-14" value="Stop" style="ellipse;whiteSpace=wrap;html=1;fillColor=#f8cecc;strokeColor=#b85450;" vertex="1" parent="6mWwChXlrOiVwd8oG1GH-4">
          <mxGeometry x="10" y="330" width="120" height="80" as="geometry" />
        </mxCell>
        <mxCell id="6mWwChXlrOiVwd8oG1GH-29" value="&lt;i&gt;Color of Card&lt;/i&gt;" style="shape=parallelogram;perimeter=parallelogramPerimeter;whiteSpace=wrap;html=1;fixedSize=1;fillColor=#f5f5f5;fontColor=#333333;strokeColor=#666666;" vertex="1" parent="6mWwChXlrOiVwd8oG1GH-4">
          <mxGeometry x="10" y="230" width="120" height="60" as="geometry" />
        </mxCell>
        <mxCell id="6mWwChXlrOiVwd8oG1GH-31" value="Play the Game" style="swimlane;whiteSpace=wrap;html=1;startSize=23;" vertex="1" parent="1">
          <mxGeometry x="10" y="320" width="460" height="560" as="geometry" />
        </mxCell>
        <mxCell id="6mWwChXlrOiVwd8oG1GH-47" style="edgeStyle=orthogonalEdgeStyle;rounded=0;orthogonalLoop=1;jettySize=auto;html=1;exitX=0.5;exitY=1;exitDx=0;exitDy=0;entryX=0.5;entryY=0;entryDx=0;entryDy=0;" edge="1" parent="6mWwChXlrOiVwd8oG1GH-31" source="6mWwChXlrOiVwd8oG1GH-33" target="6mWwChXlrOiVwd8oG1GH-18">
          <mxGeometry relative="1" as="geometry" />
        </mxCell>
        <mxCell id="6mWwChXlrOiVwd8oG1GH-33" value="Start" style="ellipse;whiteSpace=wrap;html=1;fillColor=#d5e8d4;strokeColor=#82b366;" vertex="1" parent="6mWwChXlrOiVwd8oG1GH-31">
          <mxGeometry x="330" y="30" width="120" height="80" as="geometry" />
        </mxCell>
        <mxCell id="6mWwChXlrOiVwd8oG1GH-34" style="edgeStyle=orthogonalEdgeStyle;rounded=0;orthogonalLoop=1;jettySize=auto;html=1;exitX=0.5;exitY=1;exitDx=0;exitDy=0;entryX=0.5;entryY=0;entryDx=0;entryDy=0;" edge="1" parent="6mWwChXlrOiVwd8oG1GH-31" target="6mWwChXlrOiVwd8oG1GH-37">
          <mxGeometry relative="1" as="geometry">
            <mxPoint x="230" y="100" as="sourcePoint" />
          </mxGeometry>
        </mxCell>
        <mxCell id="6mWwChXlrOiVwd8oG1GH-36" style="edgeStyle=orthogonalEdgeStyle;rounded=0;orthogonalLoop=1;jettySize=auto;html=1;exitX=0.5;exitY=1;exitDx=0;exitDy=0;entryX=0.5;entryY=0;entryDx=0;entryDy=0;" edge="1" parent="6mWwChXlrOiVwd8oG1GH-31" target="6mWwChXlrOiVwd8oG1GH-41">
          <mxGeometry relative="1" as="geometry">
            <mxPoint x="230" y="200" as="sourcePoint" />
          </mxGeometry>
        </mxCell>
        <mxCell id="6mWwChXlrOiVwd8oG1GH-38" style="edgeStyle=orthogonalEdgeStyle;rounded=0;orthogonalLoop=1;jettySize=auto;html=1;exitX=0;exitY=0.5;exitDx=0;exitDy=0;entryX=1;entryY=0.5;entryDx=0;entryDy=0;" edge="1" parent="6mWwChXlrOiVwd8oG1GH-31" target="6mWwChXlrOiVwd8oG1GH-43">
          <mxGeometry relative="1" as="geometry">
            <mxPoint x="170" y="370" as="sourcePoint" />
          </mxGeometry>
        </mxCell>
        <mxCell id="6mWwChXlrOiVwd8oG1GH-40" style="edgeStyle=orthogonalEdgeStyle;rounded=0;orthogonalLoop=1;jettySize=auto;html=1;exitX=0.5;exitY=1;exitDx=0;exitDy=0;entryX=0.5;entryY=0;entryDx=0;entryDy=0;" edge="1" parent="6mWwChXlrOiVwd8oG1GH-31" source="6mWwChXlrOiVwd8oG1GH-41">
          <mxGeometry relative="1" as="geometry">
            <mxPoint x="230" y="340" as="targetPoint" />
          </mxGeometry>
        </mxCell>
        <mxCell id="6mWwChXlrOiVwd8oG1GH-46" style="edgeStyle=orthogonalEdgeStyle;rounded=0;orthogonalLoop=1;jettySize=auto;html=1;exitX=1;exitY=0.5;exitDx=0;exitDy=0;entryX=0;entryY=0.5;entryDx=0;entryDy=0;" edge="1" parent="6mWwChXlrOiVwd8oG1GH-31" source="6mWwChXlrOiVwd8oG1GH-44" target="6mWwChXlrOiVwd8oG1GH-33">
          <mxGeometry relative="1" as="geometry" />
        </mxCell>
        <mxCell id="6mWwChXlrOiVwd8oG1GH-44" value="&lt;i&gt;Color of Card&lt;/i&gt;" style="shape=parallelogram;perimeter=parallelogramPerimeter;whiteSpace=wrap;html=1;fixedSize=1;fillColor=#f5f5f5;fontColor=#333333;strokeColor=#666666;" vertex="1" parent="6mWwChXlrOiVwd8oG1GH-31">
          <mxGeometry x="170" y="40" width="120" height="60" as="geometry" />
        </mxCell>
        <mxCell id="6mWwChXlrOiVwd8oG1GH-62" value="" style="edgeStyle=orthogonalEdgeStyle;rounded=0;orthogonalLoop=1;jettySize=auto;html=1;" edge="1" parent="6mWwChXlrOiVwd8oG1GH-31" source="6mWwChXlrOiVwd8oG1GH-18" target="6mWwChXlrOiVwd8oG1GH-61">
          <mxGeometry relative="1" as="geometry" />
        </mxCell>
        <mxCell id="6mWwChXlrOiVwd8oG1GH-18" value="Guess if the next card will be Red or Black" style="rounded=0;whiteSpace=wrap;html=1;" vertex="1" parent="6mWwChXlrOiVwd8oG1GH-31">
          <mxGeometry x="330" y="150" width="120" height="60" as="geometry" />
        </mxCell>
        <mxCell id="6mWwChXlrOiVwd8oG1GH-21" value="Was your guess&lt;br&gt;correct?" style="rhombus;whiteSpace=wrap;html=1;" vertex="1" parent="6mWwChXlrOiVwd8oG1GH-31">
          <mxGeometry x="170" y="240" width="120" height="80" as="geometry" />
        </mxCell>
        <mxCell id="6mWwChXlrOiVwd8oG1GH-59" style="edgeStyle=orthogonalEdgeStyle;rounded=0;orthogonalLoop=1;jettySize=auto;html=1;exitX=0.5;exitY=1;exitDx=0;exitDy=0;entryX=1;entryY=0.5;entryDx=0;entryDy=0;" edge="1" parent="6mWwChXlrOiVwd8oG1GH-31" source="6mWwChXlrOiVwd8oG1GH-23" target="6mWwChXlrOiVwd8oG1GH-56">
          <mxGeometry relative="1" as="geometry">
            <Array as="points">
              <mxPoint x="230" y="430" />
            </Array>
          </mxGeometry>
        </mxCell>
        <mxCell id="6mWwChXlrOiVwd8oG1GH-23" value="Win" style="rounded=0;whiteSpace=wrap;html=1;" vertex="1" parent="6mWwChXlrOiVwd8oG1GH-31">
          <mxGeometry x="170" y="360" width="120" height="60" as="geometry" />
        </mxCell>
        <mxCell id="6mWwChXlrOiVwd8oG1GH-26" style="edgeStyle=orthogonalEdgeStyle;rounded=0;orthogonalLoop=1;jettySize=auto;html=1;exitX=0.5;exitY=1;exitDx=0;exitDy=0;entryX=0.5;entryY=0;entryDx=0;entryDy=0;" edge="1" parent="6mWwChXlrOiVwd8oG1GH-31" source="6mWwChXlrOiVwd8oG1GH-21" target="6mWwChXlrOiVwd8oG1GH-23">
          <mxGeometry relative="1" as="geometry" />
        </mxCell>
        <mxCell id="6mWwChXlrOiVwd8oG1GH-55" style="edgeStyle=orthogonalEdgeStyle;rounded=0;orthogonalLoop=1;jettySize=auto;html=1;entryX=0.5;entryY=0;entryDx=0;entryDy=0;" edge="1" parent="6mWwChXlrOiVwd8oG1GH-31" source="6mWwChXlrOiVwd8oG1GH-56" target="6mWwChXlrOiVwd8oG1GH-54">
          <mxGeometry relative="1" as="geometry">
            <mxPoint x="70" y="440" as="targetPoint" />
          </mxGeometry>
        </mxCell>
        <mxCell id="6mWwChXlrOiVwd8oG1GH-24" value="Lose" style="rounded=0;whiteSpace=wrap;html=1;" vertex="1" parent="6mWwChXlrOiVwd8oG1GH-31">
          <mxGeometry x="10" y="250" width="120" height="60" as="geometry" />
        </mxCell>
        <mxCell id="6mWwChXlrOiVwd8oG1GH-25" style="edgeStyle=orthogonalEdgeStyle;rounded=0;orthogonalLoop=1;jettySize=auto;html=1;exitX=0;exitY=0.5;exitDx=0;exitDy=0;" edge="1" parent="6mWwChXlrOiVwd8oG1GH-31" source="6mWwChXlrOiVwd8oG1GH-21" target="6mWwChXlrOiVwd8oG1GH-24">
          <mxGeometry relative="1" as="geometry" />
        </mxCell>
        <mxCell id="6mWwChXlrOiVwd8oG1GH-27" value="Yes" style="text;html=1;strokeColor=none;fillColor=none;align=center;verticalAlign=middle;whiteSpace=wrap;rounded=0;" vertex="1" parent="6mWwChXlrOiVwd8oG1GH-31">
          <mxGeometry x="220" y="320" width="60" height="30" as="geometry" />
        </mxCell>
        <mxCell id="6mWwChXlrOiVwd8oG1GH-28" value="No" style="text;html=1;strokeColor=none;fillColor=none;align=center;verticalAlign=middle;whiteSpace=wrap;rounded=0;" vertex="1" parent="6mWwChXlrOiVwd8oG1GH-31">
          <mxGeometry x="130" y="250" width="60" height="30" as="geometry" />
        </mxCell>
        <mxCell id="6mWwChXlrOiVwd8oG1GH-54" value="Stop" style="ellipse;whiteSpace=wrap;html=1;fillColor=#f8cecc;strokeColor=#b85450;" vertex="1" parent="6mWwChXlrOiVwd8oG1GH-31">
          <mxGeometry x="10" y="460" width="120" height="80" as="geometry" />
        </mxCell>
        <mxCell id="6mWwChXlrOiVwd8oG1GH-56" value="" style="ellipse;whiteSpace=wrap;html=1;aspect=fixed;fillColor=#eeeeee;strokeColor=#36393d;" vertex="1" parent="6mWwChXlrOiVwd8oG1GH-31">
          <mxGeometry x="60" y="420" width="20" height="20" as="geometry" />
        </mxCell>
        <mxCell id="6mWwChXlrOiVwd8oG1GH-57" value="" style="edgeStyle=orthogonalEdgeStyle;rounded=0;orthogonalLoop=1;jettySize=auto;html=1;entryX=0.5;entryY=0;entryDx=0;entryDy=0;" edge="1" parent="6mWwChXlrOiVwd8oG1GH-31" source="6mWwChXlrOiVwd8oG1GH-24" target="6mWwChXlrOiVwd8oG1GH-56">
          <mxGeometry relative="1" as="geometry">
            <mxPoint x="470" y="900" as="targetPoint" />
            <mxPoint x="470" y="750" as="sourcePoint" />
          </mxGeometry>
        </mxCell>
        <mxCell id="6mWwChXlrOiVwd8oG1GH-63" value="" style="edgeStyle=orthogonalEdgeStyle;rounded=0;orthogonalLoop=1;jettySize=auto;html=1;" edge="1" parent="6mWwChXlrOiVwd8oG1GH-31" source="6mWwChXlrOiVwd8oG1GH-61" target="6mWwChXlrOiVwd8oG1GH-21">
          <mxGeometry relative="1" as="geometry" />
        </mxCell>
        <mxCell id="6mWwChXlrOiVwd8oG1GH-61" value="Flip the next card" style="rounded=0;whiteSpace=wrap;html=1;" vertex="1" parent="6mWwChXlrOiVwd8oG1GH-31">
          <mxGeometry x="330" y="250" width="120" height="60" as="geometry" />
        </mxCell>
        <mxCell id="6mWwChXlrOiVwd8oG1GH-67" value="" style="edgeStyle=orthogonalEdgeStyle;rounded=0;orthogonalLoop=1;jettySize=auto;html=1;" edge="1" parent="1" source="6mWwChXlrOiVwd8oG1GH-48" target="6mWwChXlrOiVwd8oG1GH-66">
          <mxGeometry relative="1" as="geometry" />
        </mxCell>
        <mxCell id="6mWwChXlrOiVwd8oG1GH-48" value="Play the Game" style="shape=process;whiteSpace=wrap;html=1;backgroundOutline=1;" vertex="1" parent="1">
          <mxGeometry x="170" y="220" width="120" height="60" as="geometry" />
        </mxCell>
        <mxCell id="6mWwChXlrOiVwd8oG1GH-51" value="" style="edgeStyle=orthogonalEdgeStyle;rounded=0;orthogonalLoop=1;jettySize=auto;html=1;" edge="1" parent="1" source="6mWwChXlrOiVwd8oG1GH-49" target="6mWwChXlrOiVwd8oG1GH-48">
          <mxGeometry relative="1" as="geometry" />
        </mxCell>
        <mxCell id="6mWwChXlrOiVwd8oG1GH-49" value="Set &lt;i&gt;Color of Card&lt;/i&gt;&amp;nbsp;to &lt;i&gt;Result&lt;/i&gt;" style="rounded=0;whiteSpace=wrap;html=1;" vertex="1" parent="1">
          <mxGeometry x="170" y="120" width="120" height="60" as="geometry" />
        </mxCell>
        <mxCell id="6mWwChXlrOiVwd8oG1GH-52" value="&lt;i&gt;Result&lt;/i&gt;" style="text;html=1;strokeColor=none;fillColor=none;align=left;verticalAlign=middle;whiteSpace=wrap;rounded=0;" vertex="1" parent="1">
          <mxGeometry x="230" y="80" width="60" height="30" as="geometry" />
        </mxCell>
        <mxCell id="6mWwChXlrOiVwd8oG1GH-53" value="&lt;i&gt;Color of Card&lt;/i&gt;" style="text;html=1;strokeColor=none;fillColor=none;align=left;verticalAlign=middle;whiteSpace=wrap;rounded=0;" vertex="1" parent="1">
          <mxGeometry x="230" y="180" width="60" height="30" as="geometry" />
        </mxCell>
        <mxCell id="6mWwChXlrOiVwd8oG1GH-66" value="Stop" style="ellipse;whiteSpace=wrap;html=1;fillColor=#ffcccc;strokeColor=#36393d;" vertex="1" parent="1">
          <mxGeometry x="10" y="210" width="120" height="80" as="geometry" />
        </mxCell>
      </root>
    </mxGraphModel>
  </diagram>
</mxfile>
